HIERARCHY
ROOT Hips
{
    OFFSET 0.000000 0.000000 0.000000
    CHANNELS 6 Xposition Yposition Zposition Zrotation Xrotation Yrotation
    JOINT Spine
    {
        OFFSET -0.000000 8.834163 0.000000
        CHANNELS 3 Zrotation Xrotation Yrotation
        JOINT Spine1
        {
            OFFSET -0.000000 17.855492 0.000000
            CHANNELS 3 Zrotation Xrotation Yrotation
            JOINT Neck
            {
                OFFSET -0.000000 17.782162 1.616560
                CHANNELS 3 Zrotation Xrotation Yrotation
                JOINT Head
                {
                    OFFSET -0.000000 15.082717 -2.154674
                    CHANNELS 3 Zrotation Xrotation Yrotation
                    End Site
                    {
                        OFFSET -0.000000 26.933422 0.000000
                    }
                }
            }
            JOINT LeftShoulder
            {
                OFFSET 4.280775 15.989452 -0.632416
                CHANNELS 3 Zrotation Xrotation Yrotation
                JOINT LeftArm
                {
                    OFFSET 11.735877 0.000000 0.000000
                    CHANNELS 3 Zrotation Xrotation Yrotation
                    JOINT LeftForeArm
                    {
                        OFFSET 33.149986 0.000000 0.000000
                        CHANNELS 3 Zrotation Xrotation Yrotation
                        JOINT LeftHand
                        {
                            OFFSET 28.572401 0.000000 0.000000
                            CHANNELS 3 Zrotation Xrotation Yrotation
                            End Site
                            {
                                OFFSET 16.160055 0.000000 0.000000
                            }
                        }
                    }
                }
            }
            JOINT RightShoulder
            {
                OFFSET -4.290631 15.989452 -0.632416
                CHANNELS 3 Zrotation Xrotation Yrotation
                JOINT RightArm
                {
                    OFFSET -11.735877 0.000000 0.000000
                    CHANNELS 3 Zrotation Xrotation Yrotation
                    JOINT RightForeArm
                    {
                        OFFSET -33.149986 0.000000 0.000000
                        CHANNELS 3 Zrotation Xrotation Yrotation
                        JOINT RightHand
                        {
                            OFFSET -28.572401 0.000000 0.000000
                            CHANNELS 3 Zrotation Xrotation Yrotation
                            End Site
                            {
                                OFFSET -16.160055 0.000000 0.000000
                            }
                        }
                    }
                }
            }
        }
    }
    JOINT LeftUpLeg
    {
        OFFSET 10.773369 0.000000 0.000000
        CHANNELS 3 Zrotation Xrotation Yrotation
        JOINT LeftLeg
        {
            OFFSET -0.000000 -54.062664 0.000000
            CHANNELS 3 Zrotation Xrotation Yrotation
            JOINT LeftFoot
            {
                OFFSET -0.000000 -48.941059 0.000000
                CHANNELS 3 Zrotation Xrotation Yrotation
                JOINT LeftToeBase
                {
                    OFFSET -0.000000 -7.002690 16.160055
                    CHANNELS 3 Zrotation Xrotation Yrotation
                    End Site
                    {
                        OFFSET -0.000000 0.000000 4.309348
                    }
                }
            }
        }
    }
    JOINT RightUpLeg
    {
        OFFSET -10.773369 0.000000 0.000000
        CHANNELS 3 Zrotation Xrotation Yrotation
        JOINT RightLeg
        {
            OFFSET -0.000000 -54.062664 0.000000
            CHANNELS 3 Zrotation Xrotation Yrotation
            JOINT RightFoot
            {
                OFFSET -0.000000 -48.941059 0.000000
                CHANNELS 3 Zrotation Xrotation Yrotation
                JOINT RightToeBase
                {
                    OFFSET -0.000000 -7.002690 16.160055
                    CHANNELS 3 Zrotation Xrotation Yrotation
                    End Site
                    {
                        OFFSET -0.000000 0.000000 4.309348
                    }
                }
            }
        }
    }
}
MOTION
Frames:    9
Frame Time:    0.008333
1.193355    108.318535    16.567139    -0.749503    -2.346657    -83.717964    -5.403521    -19.805067    -3.466143    5.756986    6.542611    -2.851471    3.415683    48.919559    4.885324    -14.181841    -23.906288    1.371348    12.160280    3.071103    2.151887    -8.908786    -1.433345    -9.589925    2.653534    -7.387996    2.646087    3.299984    -7.447402    0.048783    -14.978671    3.629411    14.421738    4.017037    -8.461385    3.992213    -2.720802    -0.664505    -4.290920    -7.540731    -0.640175    -1.917325    0.005959    9.905363    7.185138    0.640060    3.549521    3.639269    -4.031419    -15.239350    9.046247    0.000000    0.000000    0.000000    -6.888791    6.909155    4.662155    -2.443263    2.983224    1.587173    4.509780    -16.912027    -18.317446    0.000000    0.000000    0.000000    
1.177550    108.314957    16.556683    -0.762239    -2.355304    -83.704300    -5.408087    -19.800190    -3.474131    5.761679    6.545198    -2.859326    3.450194    48.941002    4.908753    -14.245508    -23.890530    1.388430    12.167930    3.078676    2.145525    -8.897508    -1.756392    -9.611364    2.484645    -7.261953    2.733891    3.355667    -7.323576    -0.096253    -14.971200    3.644360    14.415872    4.029438    -8.460689    4.011092    -2.719752    -0.676405    -4.295565    -7.578077    -0.652855    -1.896684    0.008517    9.923081    7.182400    0.639697    3.555811    3.604050    -4.033062    -15.246168    9.066767    0.000000    0.000000    0.000000    -6.892558    6.940211    4.679899    -2.432296    2.973851    1.575572    4.489240    -16.929859    -18.340448    0.000000    0.000000    0.000000    
1.165873    108.311653    16.547468    -0.755231    -2.373037    -83.687164    -5.420592    -19.814329    -3.482946    5.758882    6.558904    -2.865804    3.429736    48.907696    4.954587    -14.226763    -23.833275    1.441147    12.173608    3.064998    2.152781    -8.950799    -1.531471    -9.595057    2.627251    -7.366079    2.704329    3.300853    -7.428993    -0.048819    -14.961992    3.636057    14.410183    4.042235    -8.482440    4.025530    -2.709742    -0.675055    -4.299278    -7.606841    -0.650569    -1.900041    0.002812    9.925151    7.143498    0.627245    3.550257    3.635456    -4.041811    -15.248525    9.061040    0.000000    0.000000    0.000000    -6.902668    6.949758    4.659499    -2.438672    2.967994    1.575448    4.504958    -16.952887    -18.330196    0.000000    0.000000    0.000000    
1.152134    108.308388    16.537867    -0.752488    -2.389347    -83.664818    -5.419741    -19.817259    -3.492174    5.734713    6.550328    -2.873195    3.507943    48.809391    4.994493    -14.317621    -23.641132    1.497468    12.195769    3.064222    2.155435    -8.973645    -1.534516    -9.590512    2.612415    -7.375220    2.706693    3.339338    -7.438334    -0.065969    -14.945381    3.650685    14.407457    4.055877    -8.498273    4.038496    -2.694485    -0.662495    -4.317991    -7.616647    -0.643590    -1.810955    -0.006570    9.922484    7.166986    0.638578    3.559437    3.611834    -4.075466    -15.246930    9.034602    0.000000    0.000000    0.000000    -6.908058    6.963046    4.645697    -2.443385    2.965862    1.559077    4.476609    -16.966328    -18.323345    0.000000    0.000000    0.000000    
1.137286    108.304832    16.529196    -0.755919    -2.404022    -83.639526    -5.426089    -19.821335    -3.507384    5.732208    6.559538    -2.887426    3.521281    48.808449    5.025251    -14.372688    -23.619719    1.517676    12.191236    3.053113    2.165477    -8.982346    -1.498848    -9.574972    2.612707    -7.397583    2.688195    3.359567    -7.459991    -0.055382    -14.941084    3.640376    14.425091    4.073942    -8.471499    4.018008    -2.703726    -0.685723    -4.299805    -7.601257    -0.669284    -1.776689    -0.009114    9.932952    7.149848    0.634046    3.558707    3.601935    -4.065743    -15.245006    9.036683    0.000000    0.000000    0.000000    -6.916144    6.987869    4.619482    -2.443532    2.949903    1.548183    4.478620    -16.975792    -18.307604    0.000000    0.000000    0.000000    
1.123256    108.300606    16.518448    -0.764401    -2.417259    -83.624290    -5.415412    -19.823957    -3.514054    5.711968    6.588374    -2.896112    3.608896    48.794914    5.026505    -14.516473    -23.597649    1.501777    12.189941    3.011253    2.196830    -8.973190    -1.421772    -9.573744    2.595794    -7.450298    2.671160    3.423225    -7.512817    -0.084783    -14.954338    3.618174    14.408160    4.120885    -8.439997    4.041263    -2.715439    -0.711805    -4.282198    -7.605607    -0.696471    -1.757940    -0.012563    9.948139    7.166271    0.643285    3.558459    3.570923    -4.105564    -15.244960    9.020619    0.000000    0.000000    0.000000    -6.923500    7.013892    4.644736    -2.439647    2.945236    1.553939    4.451433    -16.996010    -18.347034    0.000000    0.000000    0.000000    
1.112419    108.296295    16.507587    -0.758554    -2.427404    -83.597809    -5.424127    -19.829937    -3.526004    5.707822    6.586010    -2.905908    3.683819    48.831917    5.013776    -14.617762    -23.617464    1.478662    12.207739    3.004525    2.202457    -8.994013    -1.385509    -9.574198    2.590935    -7.464943    2.663703    3.429249    -7.527264    -0.087555    -14.939505    3.630353    14.411785    4.119865    -8.516586    4.046634    -2.681274    -0.681248    -4.284249    -7.617287    -0.659455    -1.835150    -0.013748    9.942859    7.159057    0.643122    3.562419    3.566900    -4.084049    -15.246610    9.022519    0.000000    0.000000    0.000000    -6.925271    7.024481    4.627997    -2.436716    2.941175    1.536768    4.435287    -17.014490    -18.343416    0.000000    0.000000    0.000000    
1.097600    108.292320    16.497786    -0.759953    -2.436453    -83.580528    -5.419469    -19.839567    -3.533174    5.698915    6.598846    -2.913509    4.230473    48.866619    4.818938    -15.292226    -23.561384    1.240938    12.238793    2.863611    2.230362    -9.028476    -1.245670    -9.581972    2.592624    -7.456719    2.694336    3.411212    -7.520655    -0.117592    -14.941842    3.626765    14.416835    4.138547    -8.535172    4.048203    -2.645004    -0.642338    -4.277867    -7.655439    -0.616839    -1.858555    -0.011005    9.949816    7.154787    0.639734    3.565064    3.558337    -4.091162    -15.250556    9.015663    0.000000    0.000000    0.000000    -6.924021    7.042022    4.633045    -2.441610    2.936120    1.545266    4.413350    -17.028975    -18.372513    0.000000    0.000000    0.000000    
1.084393    108.290268    16.489479    -0.758795    -2.447198    -83.556801    -5.418471    -19.854437    -3.540784    5.683698    6.618744    -2.920707    4.257123    48.893265    4.826526    -15.334295    -23.597099    1.240306    12.248392    2.848447    2.239624    -9.031103    -1.234734    -9.589022    2.596963    -7.418478    2.701507    3.344151    -7.482680    -0.120226    -14.912426    3.610906    14.433461    4.127165    -8.474353    4.018476    -2.635618    -0.670449    -4.262786    -7.659482    -0.635864    -1.981903    -0.015991    9.952853    7.165230    0.647073    3.565130    3.537298    -4.107319    -15.251674    9.008904    0.000000    0.000000    0.000000    -6.928165    7.056697    4.637218    -2.439227    2.930965    1.464693    4.420988    -17.037828    -18.313610    0.000000    0.000000    0.000000    
